<svg xmlns="http://www.w3.org/2000/svg"  viewBox="0 0 50 50" width="50px" height="50px"><path d="M 15 5 C 9.486 5 5 9.486 5 15 L 5 35 C 5 40.514 9.486 45 15 45 L 35 45 C 40.514 45 45 40.514 45 35 L 45 15 C 45 9.486 40.514 5 35 5 L 15 5 z M 18.599609 15.998047 L 19.167969 16.007812 C 19.915969 16.630813 20.464141 17.296141 20.869141 17.994141 L 21.4375 17.994141 C 21.7985 17.892141 22.112766 17.744641 22.384766 17.556641 C 22.498766 17.474641 22.643344 17.450141 22.777344 17.494141 C 22.911344 17.538141 23.016547 17.642391 23.060547 17.775391 C 23.109547 17.899391 23.140625 17.994141 23.140625 17.994141 C 23.137625 18.185141 23.070984 18.303641 22.958984 18.431641 C 22.746984 18.688641 22.706469 19.04675 22.855469 19.34375 C 22.926469 19.50675 23.008844 19.686422 23.089844 19.857422 C 23.265844 19.832422 23.451562 19.874141 23.601562 19.994141 C 23.891562 20.225141 23.939031 20.649453 23.707031 20.939453 C 23.706031 20.939453 22.591344 22.352844 20.652344 22.339844 C 20.644344 22.339844 20.636906 22.338891 20.628906 22.337891 C 18.717906 22.255891 17.621094 20.955078 17.621094 20.955078 C 17.380094 20.673078 17.413312 20.248812 17.695312 20.007812 C 17.923313 19.812812 18.240422 19.806031 18.482422 19.957031 L 18.882812 18.5625 C 18.882812 18.5625 18.775719 18.634562 18.636719 18.726562 C 18.283719 18.961562 17.814672 18.915187 17.513672 18.617188 C 17.472672 18.576187 17.430672 18.535141 17.388672 18.494141 C 17.082672 18.192141 17.034391 17.715375 17.275391 17.359375 C 17.563391 16.953375 17.940609 16.517047 18.599609 15.998047 z M 34.535156 16 L 38.4375 16 C 39.0125 16 39.494594 16.437625 39.558594 17.015625 C 39.679594 18.121625 39.873141 19.878375 39.994141 20.984375 C 40.023141 21.242375 39.940531 21.502312 39.769531 21.695312 C 39.598531 21.889312 39.354656 22 39.097656 22 L 33.902344 22 C 33.646344 22 33.403422 21.889266 33.232422 21.697266 C 33.061422 21.505266 32.978859 21.248234 33.005859 20.990234 C 33.118859 19.888234 33.298109 18.131437 33.412109 17.023438 C 33.472109 16.441437 33.957156 16 34.535156 16 z M 30.021484 16.001953 C 30.583484 15.982953 31.002359 16.461891 31.318359 16.837891 C 31.527359 17.119891 31.557484 17.496594 31.396484 17.808594 C 31.381484 17.837594 31.367562 17.867437 31.351562 17.898438 C 31.084563 18.414437 30.945312 18.987359 30.945312 19.568359 L 30.945312 21.964844 L 30.328125 21.964844 C 30.328125 21.963844 30.335125 20.469953 30.328125 19.876953 C 30.322125 19.283953 30.021484 19.28125 30.021484 19.28125 C 30.021484 19.28125 29.230953 21.749844 27.251953 21.964844 C 26.308953 22.066844 25.495437 21.937203 24.898438 21.783203 C 24.719438 21.726203 24.594937 21.563 24.585938 21.375 C 24.576937 21.187 24.684422 21.013453 24.857422 20.939453 C 25.646422 20.597453 26.619141 20.175781 26.619141 20.175781 L 27.234375 20.474609 C 28.568375 20.202609 29.082031 18.685547 29.082031 18.685547 C 29.082031 18.685547 29.081484 16.032953 30.021484 16.001953 z M 10.439453 16.007812 C 11.230453 15.959812 11.691484 16.124328 12.271484 16.611328 C 12.815484 16.183328 13.264766 15.957812 14.134766 16.007812 C 14.202766 16.761813 14.036531 17.460188 13.519531 18.117188 C 14.289531 19.384187 14.717969 20.310813 15.042969 21.132812 C 15.042969 21.132812 14.202484 22.399891 12.271484 22.337891 C 10.340484 22.275891 9.5 21.132813 9.5 21.132812 C 10.028 19.730812 10.545641 18.797187 11.056641 18.117188 C 10.605641 17.553187 10.470453 16.837812 10.439453 16.007812 z M 35.220703 17.337891 C 35.178562 17.330734 35.134094 17.331047 35.089844 17.341797 C 34.912844 17.384797 34.803703 17.563187 34.845703 17.742188 C 34.845703 17.742188 34.974125 18.297234 35.328125 18.740234 C 35.590125 19.068234 35.967422 19.332031 36.482422 19.332031 C 36.997422 19.332031 37.374719 19.068234 37.636719 18.740234 C 37.990719 18.297234 38.121094 17.742188 38.121094 17.742188 C 38.163094 17.563188 38.053953 17.383797 37.876953 17.341797 C 37.699953 17.299797 37.522469 17.410844 37.480469 17.589844 C 37.480469 17.589844 37.385 17.995312 37.125 18.320312 C 36.978 18.504313 36.771422 18.666016 36.482422 18.666016 C 36.193422 18.666016 35.988797 18.505312 35.841797 18.320312 C 35.581797 17.995313 35.486328 17.589844 35.486328 17.589844 C 35.454828 17.455594 35.347125 17.359359 35.220703 17.337891 z M 20.585938 20.265625 C 20.230937 20.243625 19.900531 20.487906 19.644531 20.753906 C 19.935531 20.876906 20.278594 20.975141 20.683594 20.994141 C 21.009594 20.993141 21.297828 20.931797 21.548828 20.841797 C 21.369828 20.603797 21.051938 20.294625 20.585938 20.265625 z M 10 25 L 15 25 C 15.553 25 16 25.447 16 26 C 16 26.553 15.553 27 15 27 L 13.5 27 L 13.5 32 C 13.5 32.553 13.053 33 12.5 33 C 11.947 33 11.5 32.553 11.5 32 L 11.5 27 L 10 27 C 9.447 27 9 26.553 9 26 C 9 25.447 9.447 25 10 25 z M 18 25 L 22 25 C 22.553 25 23 25.447 23 26 C 23 26.553 22.553 27 22 27 L 19 27 L 19 28 L 21.974609 28 C 22.527609 28 22.974609 28.447 22.974609 29 C 22.974609 29.553 22.527609 30 21.974609 30 L 19 30 L 19 31 L 22 31 C 22.553 31 23 31.447 23 32 C 23 32.553 22.553 33 22 33 L 18 33 C 17.447 33 17 32.553 17 32 L 17 26 C 17 25.447 17.447 25 18 25 z M 31.005859 25 C 31.109547 25.000656 31.213906 25.016531 31.316406 25.050781 C 31.725406 25.187781 32 25.569 32 26 L 32 32 C 32 32.553 31.553 33 31 33 C 30.447 33 30 32.553 30 32 L 30 29 L 28.800781 30.599609 C 28.612781 30.851609 28.316953 30.999 28.001953 31 L 28 31 C 27.687 31 27.391172 30.853516 27.201172 30.603516 L 25.986328 28.996094 L 26 31.996094 C 26.002 32.548094 25.557859 32.999953 25.005859 33.001953 L 25 33.001953 C 24.449 33.001953 24.002 32.557859 24 32.005859 L 23.974609 26.005859 C 23.972609 25.575859 24.245297 25.192688 24.654297 25.054688 C 25.060297 24.917687 25.509484 25.053437 25.771484 25.398438 L 27.996094 28.339844 L 30.199219 25.400391 C 30.392719 25.141641 30.694797 24.998031 31.005859 25 z M 34 25 L 34.003906 25 C 34.556906 25.002 35.002 25.451906 35 26.003906 L 34.984375 29.480469 C 34.982375 29.886469 35.139781 30.268688 35.425781 30.554688 C 35.707781 30.837687 36.097094 31 36.496094 31 C 37.325094 31 38 30.326047 38 29.498047 L 38 26 C 38 25.447 38.447 25 39 25 C 39.553 25 40 25.447 40 26 L 40 29.498047 C 40 31.429047 38.429047 33 36.498047 33 C 35.558047 33 34.674766 32.632797 34.009766 31.966797 C 33.345766 31.299797 32.982328 30.413656 32.986328 29.472656 L 33 25.996094 C 33.002 25.445094 33.449 25 34 25 z"/></svg>